<mxfile host="app.diagrams.net" agent="Mozilla/5.0 (Windows NT 10.0; Win64; x64) AppleWebKit/537.36 (KHTML, like Gecko) Chrome/132.0.0.0 Safari/537.36" version="26.0.10">
  <diagram id="Ht1M8jgEwFfnCIfOTk4-" name="Page-1">
    <mxGraphModel dx="1687" dy="878" grid="1" gridSize="10" guides="1" tooltips="1" connect="1" arrows="1" fold="1" page="1" pageScale="1" pageWidth="4681" pageHeight="3300" math="0" shadow="0">
      <root>
        <mxCell id="0" />
        <mxCell id="1" parent="0" />
        <mxCell id="vX0zxUk8zvncwuecPgbI-19" value="" style="points=[[0,0],[0.25,0],[0.5,0],[0.75,0],[1,0],[1,0.25],[1,0.5],[1,0.75],[1,1],[0.75,1],[0.5,1],[0.25,1],[0,1],[0,0.75],[0,0.5],[0,0.25]];outlineConnect=0;gradientColor=none;html=1;whiteSpace=wrap;fontSize=12;fontStyle=0;container=1;pointerEvents=0;collapsible=0;recursiveResize=0;shape=mxgraph.aws4.group;grIcon=mxgraph.aws4.group_aws_cloud_alt;strokeColor=#232F3E;fillColor=none;verticalAlign=top;align=left;spacingLeft=30;fontColor=#232F3E;dashed=0;strokeWidth=2;" vertex="1" parent="1">
          <mxGeometry x="240" y="160" width="660" height="500" as="geometry" />
        </mxCell>
        <mxCell id="vX0zxUk8zvncwuecPgbI-70" style="edgeStyle=orthogonalEdgeStyle;rounded=0;orthogonalLoop=1;jettySize=auto;html=1;" edge="1" parent="vX0zxUk8zvncwuecPgbI-19" source="vX0zxUk8zvncwuecPgbI-20" target="vX0zxUk8zvncwuecPgbI-6">
          <mxGeometry relative="1" as="geometry" />
        </mxCell>
        <mxCell id="vX0zxUk8zvncwuecPgbI-20" value="Amazon API Gateway" style="sketch=0;points=[[0,0,0],[0.25,0,0],[0.5,0,0],[0.75,0,0],[1,0,0],[0,1,0],[0.25,1,0],[0.5,1,0],[0.75,1,0],[1,1,0],[0,0.25,0],[0,0.5,0],[0,0.75,0],[1,0.25,0],[1,0.5,0],[1,0.75,0]];outlineConnect=0;fontColor=#232F3E;fillColor=#E7157B;strokeColor=#ffffff;dashed=0;verticalLabelPosition=bottom;verticalAlign=top;align=center;html=1;fontSize=12;fontStyle=0;aspect=fixed;shape=mxgraph.aws4.resourceIcon;resIcon=mxgraph.aws4.api_gateway;" vertex="1" parent="vX0zxUk8zvncwuecPgbI-19">
          <mxGeometry x="326" y="117" width="78" height="78" as="geometry" />
        </mxCell>
        <mxCell id="vX0zxUk8zvncwuecPgbI-42" style="edgeStyle=orthogonalEdgeStyle;rounded=0;orthogonalLoop=1;jettySize=auto;html=1;" edge="1" parent="vX0zxUk8zvncwuecPgbI-19" source="vX0zxUk8zvncwuecPgbI-6" target="vX0zxUk8zvncwuecPgbI-41">
          <mxGeometry relative="1" as="geometry" />
        </mxCell>
        <mxCell id="vX0zxUk8zvncwuecPgbI-6" value="AWS Back-End&amp;nbsp;&lt;div&gt;Lambdas&lt;/div&gt;" style="outlineConnect=0;dashed=0;verticalLabelPosition=bottom;verticalAlign=top;align=center;html=1;shape=mxgraph.aws3.lambda_function;fillColor=#F58534;gradientColor=none;aspect=fixed;" vertex="1" parent="vX0zxUk8zvncwuecPgbI-19">
          <mxGeometry x="327.63" y="330" width="74.75" height="78" as="geometry" />
        </mxCell>
        <mxCell id="vX0zxUk8zvncwuecPgbI-35" style="edgeStyle=orthogonalEdgeStyle;rounded=0;orthogonalLoop=1;jettySize=auto;html=1;" edge="1" parent="vX0zxUk8zvncwuecPgbI-19" source="vX0zxUk8zvncwuecPgbI-3" target="vX0zxUk8zvncwuecPgbI-20">
          <mxGeometry relative="1" as="geometry" />
        </mxCell>
        <mxCell id="vX0zxUk8zvncwuecPgbI-3" value="Amazon S3&lt;br&gt;Front-end bucket&lt;span style=&quot;background-color: transparent; color: light-dark(rgb(35, 47, 62), rgb(189, 199, 212));&quot;&gt;&amp;nbsp;&lt;/span&gt;" style="sketch=0;points=[[0,0,0],[0.25,0,0],[0.5,0,0],[0.75,0,0],[1,0,0],[0,1,0],[0.25,1,0],[0.5,1,0],[0.75,1,0],[1,1,0],[0,0.25,0],[0,0.5,0],[0,0.75,0],[1,0.25,0],[1,0.5,0],[1,0.75,0]];outlineConnect=0;fontColor=#232F3E;fillColor=#7AA116;strokeColor=#ffffff;dashed=0;verticalLabelPosition=bottom;verticalAlign=top;align=center;html=1;fontSize=12;fontStyle=0;aspect=fixed;shape=mxgraph.aws4.resourceIcon;resIcon=mxgraph.aws4.s3;" vertex="1" parent="vX0zxUk8zvncwuecPgbI-19">
          <mxGeometry x="130" y="117" width="78" height="78" as="geometry" />
        </mxCell>
        <mxCell id="vX0zxUk8zvncwuecPgbI-2" value="Amazon&amp;nbsp;&lt;span style=&quot;background-color: transparent; color: light-dark(rgb(35, 47, 62), rgb(189, 199, 212));&quot;&gt;CloudFront&lt;/span&gt;" style="sketch=0;points=[[0,0,0],[0.25,0,0],[0.5,0,0],[0.75,0,0],[1,0,0],[0,1,0],[0.25,1,0],[0.5,1,0],[0.75,1,0],[1,1,0],[0,0.25,0],[0,0.5,0],[0,0.75,0],[1,0.25,0],[1,0.5,0],[1,0.75,0]];outlineConnect=0;fontColor=#232F3E;fillColor=#8C4FFF;strokeColor=#ffffff;dashed=0;verticalLabelPosition=bottom;verticalAlign=top;align=center;html=1;fontSize=12;fontStyle=0;aspect=fixed;shape=mxgraph.aws4.resourceIcon;resIcon=mxgraph.aws4.cloudfront;" vertex="1" parent="vX0zxUk8zvncwuecPgbI-19">
          <mxGeometry x="-40" y="117" width="78" height="78" as="geometry" />
        </mxCell>
        <mxCell id="vX0zxUk8zvncwuecPgbI-13" value="" style="edgeStyle=orthogonalEdgeStyle;rounded=0;orthogonalLoop=1;jettySize=auto;html=1;" edge="1" parent="vX0zxUk8zvncwuecPgbI-19" source="vX0zxUk8zvncwuecPgbI-2" target="vX0zxUk8zvncwuecPgbI-3">
          <mxGeometry relative="1" as="geometry" />
        </mxCell>
        <mxCell id="vX0zxUk8zvncwuecPgbI-7" value="DynamoDB" style="sketch=0;points=[[0,0,0],[0.25,0,0],[0.5,0,0],[0.75,0,0],[1,0,0],[0,1,0],[0.25,1,0],[0.5,1,0],[0.75,1,0],[1,1,0],[0,0.25,0],[0,0.5,0],[0,0.75,0],[1,0.25,0],[1,0.5,0],[1,0.75,0]];outlineConnect=0;fontColor=#232F3E;fillColor=#C925D1;strokeColor=#ffffff;dashed=0;verticalLabelPosition=bottom;verticalAlign=top;align=center;html=1;fontSize=12;fontStyle=0;aspect=fixed;shape=mxgraph.aws4.resourceIcon;resIcon=mxgraph.aws4.dynamodb;" vertex="1" parent="vX0zxUk8zvncwuecPgbI-19">
          <mxGeometry x="510" y="330" width="78" height="78" as="geometry" />
        </mxCell>
        <mxCell id="vX0zxUk8zvncwuecPgbI-16" value="" style="edgeStyle=orthogonalEdgeStyle;rounded=0;orthogonalLoop=1;jettySize=auto;html=1;" edge="1" parent="vX0zxUk8zvncwuecPgbI-19" source="vX0zxUk8zvncwuecPgbI-6" target="vX0zxUk8zvncwuecPgbI-7">
          <mxGeometry relative="1" as="geometry" />
        </mxCell>
        <mxCell id="vX0zxUk8zvncwuecPgbI-41" value="Amazon S3&lt;br&gt;Image bucket" style="sketch=0;points=[[0,0,0],[0.25,0,0],[0.5,0,0],[0.75,0,0],[1,0,0],[0,1,0],[0.25,1,0],[0.5,1,0],[0.75,1,0],[1,1,0],[0,0.25,0],[0,0.5,0],[0,0.75,0],[1,0.25,0],[1,0.5,0],[1,0.75,0]];outlineConnect=0;fontColor=#232F3E;fillColor=#7AA116;strokeColor=#ffffff;dashed=0;verticalLabelPosition=bottom;verticalAlign=top;align=center;html=1;fontSize=12;fontStyle=0;aspect=fixed;shape=mxgraph.aws4.resourceIcon;resIcon=mxgraph.aws4.s3;" vertex="1" parent="vX0zxUk8zvncwuecPgbI-19">
          <mxGeometry x="130" y="330" width="78" height="78" as="geometry" />
        </mxCell>
        <mxCell id="vX0zxUk8zvncwuecPgbI-65" value="AWS Cloud" style="text;html=1;align=center;verticalAlign=middle;resizable=0;points=[];autosize=1;strokeColor=none;fillColor=none;fontSize=13;" vertex="1" parent="vX0zxUk8zvncwuecPgbI-19">
          <mxGeometry x="285" width="90" height="30" as="geometry" />
        </mxCell>
        <mxCell id="vX0zxUk8zvncwuecPgbI-71" value="" style="html=1;labelBackgroundColor=#ffffff;startArrow=none;startFill=0;startSize=6;endArrow=classic;endFill=1;endSize=6;jettySize=auto;orthogonalLoop=1;strokeWidth=1;dashed=1;fontSize=14;rounded=0;exitX=0.145;exitY=0.145;exitDx=0;exitDy=0;exitPerimeter=0;entryX=0.25;entryY=1;entryDx=0;entryDy=0;entryPerimeter=0;" edge="1" parent="vX0zxUk8zvncwuecPgbI-19" source="vX0zxUk8zvncwuecPgbI-6" target="vX0zxUk8zvncwuecPgbI-20">
          <mxGeometry width="60" height="60" relative="1" as="geometry">
            <mxPoint x="350" y="330" as="sourcePoint" />
            <mxPoint x="140" y="379" as="targetPoint" />
            <Array as="points" />
          </mxGeometry>
        </mxCell>
        <mxCell id="vX0zxUk8zvncwuecPgbI-34" value="" style="edgeStyle=orthogonalEdgeStyle;rounded=0;orthogonalLoop=1;jettySize=auto;html=1;" edge="1" parent="1" source="vX0zxUk8zvncwuecPgbI-33" target="vX0zxUk8zvncwuecPgbI-2">
          <mxGeometry relative="1" as="geometry" />
        </mxCell>
        <mxCell id="vX0zxUk8zvncwuecPgbI-33" value="Client" style="points=[[0.03,0.03,0],[0.5,0,0],[0.97,0.03,0],[1,0.4,0],[0.97,0.745,0],[0.5,1,0],[0.03,0.745,0],[0,0.4,0]];verticalLabelPosition=bottom;sketch=0;html=1;verticalAlign=top;aspect=fixed;align=center;pointerEvents=1;shape=mxgraph.cisco19.workstation;fillColor=#005073;strokeColor=none;" vertex="1" parent="1">
          <mxGeometry x="50" y="284.8" width="78" height="62.4" as="geometry" />
        </mxCell>
        <mxCell id="vX0zxUk8zvncwuecPgbI-44" value="CI/CD Pipeline" style="points=[[0,0],[0.25,0],[0.5,0],[0.75,0],[1,0],[1,0.25],[1,0.5],[1,0.75],[1,1],[0.75,1],[0.5,1],[0.25,1],[0,1],[0,0.75],[0,0.5],[0,0.25]];outlineConnect=0;gradientColor=none;html=1;whiteSpace=wrap;fontSize=12;fontStyle=0;container=1;pointerEvents=0;collapsible=0;recursiveResize=0;shape=mxgraph.aws4.group;grIcon=mxgraph.aws4.group_aws_cloud_alt;strokeColor=#232F3E;fillColor=none;verticalAlign=top;align=left;spacingLeft=30;fontColor=#232F3E;dashed=0;strokeWidth=2;" vertex="1" parent="1">
          <mxGeometry x="940" y="160" width="440" height="500" as="geometry" />
        </mxCell>
        <mxCell id="vX0zxUk8zvncwuecPgbI-45" value="AWS&amp;nbsp;&lt;span style=&quot;background-color: transparent; color: light-dark(rgb(35, 47, 62), rgb(189, 199, 212));&quot;&gt;CodePipeline&lt;/span&gt;" style="sketch=0;points=[[0,0,0],[0.25,0,0],[0.5,0,0],[0.75,0,0],[1,0,0],[0,1,0],[0.25,1,0],[0.5,1,0],[0.75,1,0],[1,1,0],[0,0.25,0],[0,0.5,0],[0,0.75,0],[1,0.25,0],[1,0.5,0],[1,0.75,0]];outlineConnect=0;fontColor=#232F3E;fillColor=#C925D1;strokeColor=#ffffff;dashed=0;verticalLabelPosition=bottom;verticalAlign=top;align=center;html=1;fontSize=12;fontStyle=0;aspect=fixed;shape=mxgraph.aws4.resourceIcon;resIcon=mxgraph.aws4.codepipeline;direction=east;" vertex="1" parent="vX0zxUk8zvncwuecPgbI-44">
          <mxGeometry x="30" y="80" width="78" height="78" as="geometry" />
        </mxCell>
        <mxCell id="vX0zxUk8zvncwuecPgbI-46" value="Team-managed deployment CodePipeline" style="fillColor=none;strokeColor=#5A6C86;dashed=1;verticalAlign=top;fontStyle=0;fontColor=#5A6C86;whiteSpace=wrap;html=1;" vertex="1" parent="vX0zxUk8zvncwuecPgbI-44">
          <mxGeometry x="70" y="80" width="300" height="340" as="geometry" />
        </mxCell>
        <mxCell id="vX0zxUk8zvncwuecPgbI-55" value="" style="edgeStyle=orthogonalEdgeStyle;rounded=0;orthogonalLoop=1;jettySize=auto;html=1;" edge="1" parent="vX0zxUk8zvncwuecPgbI-44" source="vX0zxUk8zvncwuecPgbI-61" target="vX0zxUk8zvncwuecPgbI-54">
          <mxGeometry relative="1" as="geometry">
            <mxPoint x="400" y="219" as="sourcePoint" />
          </mxGeometry>
        </mxCell>
        <mxCell id="vX0zxUk8zvncwuecPgbI-54" value="AWS CodeBuild" style="sketch=0;points=[[0,0,0],[0.25,0,0],[0.5,0,0],[0.75,0,0],[1,0,0],[0,1,0],[0.25,1,0],[0.5,1,0],[0.75,1,0],[1,1,0],[0,0.25,0],[0,0.5,0],[0,0.75,0],[1,0.25,0],[1,0.5,0],[1,0.75,0]];outlineConnect=0;fontColor=#232F3E;fillColor=#C925D1;strokeColor=#ffffff;dashed=0;verticalLabelPosition=bottom;verticalAlign=top;align=center;html=1;fontSize=12;fontStyle=0;aspect=fixed;shape=mxgraph.aws4.resourceIcon;resIcon=mxgraph.aws4.codebuild;" vertex="1" parent="vX0zxUk8zvncwuecPgbI-44">
          <mxGeometry x="118" y="210" width="78" height="78" as="geometry" />
        </mxCell>
        <mxCell id="vX0zxUk8zvncwuecPgbI-61" value="GitHub" style="verticalLabelPosition=bottom;html=1;verticalAlign=top;align=center;strokeColor=none;fillColor=#00BEF2;shape=mxgraph.azure.github_code;pointerEvents=1;aspect=fixed;" vertex="1" parent="vX0zxUk8zvncwuecPgbI-44">
          <mxGeometry x="250" y="210" width="78" height="78" as="geometry" />
        </mxCell>
        <mxCell id="vX0zxUk8zvncwuecPgbI-77" value="" style="fillColor=none;strokeColor=#5A6C86;verticalAlign=top;fontStyle=0;fontColor=#5A6C86;whiteSpace=wrap;html=1;dashed=1;dashPattern=8 8;" vertex="1" parent="vX0zxUk8zvncwuecPgbI-44">
          <mxGeometry x="-710" y="30" width="1170" height="420" as="geometry" />
        </mxCell>
        <mxCell id="vX0zxUk8zvncwuecPgbI-52" value="Software Engineers" style="sketch=0;outlineConnect=0;fontColor=#232F3E;gradientColor=none;fillColor=#232F3D;strokeColor=none;dashed=0;verticalLabelPosition=bottom;verticalAlign=top;align=center;html=1;fontSize=12;fontStyle=0;aspect=fixed;pointerEvents=1;shape=mxgraph.aws4.users;" vertex="1" parent="1">
          <mxGeometry x="1460" y="371" width="78" height="78" as="geometry" />
        </mxCell>
        <mxCell id="vX0zxUk8zvncwuecPgbI-53" style="edgeStyle=orthogonalEdgeStyle;rounded=0;orthogonalLoop=1;jettySize=auto;html=1;" edge="1" parent="1" source="vX0zxUk8zvncwuecPgbI-52" target="vX0zxUk8zvncwuecPgbI-61">
          <mxGeometry relative="1" as="geometry">
            <mxPoint x="1428.0000000000005" y="409" as="targetPoint" />
          </mxGeometry>
        </mxCell>
        <mxCell id="vX0zxUk8zvncwuecPgbI-60" value="&amp;nbsp;Push&amp;nbsp;" style="edgeLabel;html=1;align=center;verticalAlign=middle;resizable=0;points=[];fontSize=14;" vertex="1" connectable="0" parent="vX0zxUk8zvncwuecPgbI-53">
          <mxGeometry x="-0.631" y="1" relative="1" as="geometry">
            <mxPoint x="-35" y="-1" as="offset" />
          </mxGeometry>
        </mxCell>
        <mxCell id="vX0zxUk8zvncwuecPgbI-58" style="edgeStyle=orthogonalEdgeStyle;rounded=0;orthogonalLoop=1;jettySize=auto;html=1;" edge="1" parent="1" source="vX0zxUk8zvncwuecPgbI-54" target="vX0zxUk8zvncwuecPgbI-19">
          <mxGeometry relative="1" as="geometry" />
        </mxCell>
        <mxCell id="vX0zxUk8zvncwuecPgbI-68" value="" style="html=1;labelBackgroundColor=#ffffff;startArrow=none;startFill=0;startSize=6;endArrow=classic;endFill=1;endSize=6;jettySize=auto;orthogonalLoop=1;strokeWidth=1;dashed=1;fontSize=14;rounded=0;exitX=0.5;exitY=1;exitDx=0;exitDy=0;exitPerimeter=0;" edge="1" parent="1" source="vX0zxUk8zvncwuecPgbI-33" target="vX0zxUk8zvncwuecPgbI-41">
          <mxGeometry width="60" height="60" relative="1" as="geometry">
            <mxPoint x="860" y="550" as="sourcePoint" />
            <mxPoint x="920" y="490" as="targetPoint" />
            <Array as="points">
              <mxPoint x="89" y="529" />
            </Array>
          </mxGeometry>
        </mxCell>
        <mxCell id="vX0zxUk8zvncwuecPgbI-56" value="AWS CloudFormation" style="sketch=0;points=[[0,0,0],[0.25,0,0],[0.5,0,0],[0.75,0,0],[1,0,0],[0,1,0],[0.25,1,0],[0.5,1,0],[0.75,1,0],[1,1,0],[0,0.25,0],[0,0.5,0],[0,0.75,0],[1,0.25,0],[1,0.5,0],[1,0.75,0]];points=[[0,0,0],[0.25,0,0],[0.5,0,0],[0.75,0,0],[1,0,0],[0,1,0],[0.25,1,0],[0.5,1,0],[0.75,1,0],[1,1,0],[0,0.25,0],[0,0.5,0],[0,0.75,0],[1,0.25,0],[1,0.5,0],[1,0.75,0]];outlineConnect=0;fontColor=#232F3E;fillColor=#E7157B;strokeColor=#ffffff;dashed=0;verticalLabelPosition=bottom;verticalAlign=top;align=center;html=1;fontSize=12;fontStyle=0;aspect=fixed;shape=mxgraph.aws4.resourceIcon;resIcon=mxgraph.aws4.cloudformation;" vertex="1" parent="1">
          <mxGeometry x="1460" y="190" width="78" height="78" as="geometry" />
        </mxCell>
        <mxCell id="vX0zxUk8zvncwuecPgbI-78" style="edgeStyle=orthogonalEdgeStyle;rounded=0;orthogonalLoop=1;jettySize=auto;html=1;entryX=1;entryY=0.093;entryDx=0;entryDy=0;entryPerimeter=0;" edge="1" parent="1" source="vX0zxUk8zvncwuecPgbI-56" target="vX0zxUk8zvncwuecPgbI-77">
          <mxGeometry relative="1" as="geometry" />
        </mxCell>
      </root>
    </mxGraphModel>
  </diagram>
</mxfile>
